<?xml version="1.0" encoding="UTF-8" standalone="no"?>
<!-- Created with Inkscape (http://www.inkscape.org/) -->

<svg
   xmlns:dc="http://purl.org/dc/elements/1.1/"
   xmlns:cc="http://creativecommons.org/ns#"
   xmlns:rdf="http://www.w3.org/1999/02/22-rdf-syntax-ns#"
   xmlns:svg="http://www.w3.org/2000/svg"
   xmlns="http://www.w3.org/2000/svg"
   xmlns:sodipodi="http://sodipodi.sourceforge.net/DTD/sodipodi-0.dtd"
   xmlns:inkscape="http://www.inkscape.org/namespaces/inkscape"
   width="304.80002mm"
   height="135.46666mm"
   viewBox="0 0 304.80002 135.46666"
   version="1.1"
   id="svg5848"
   sodipodi:docname="eos_nairobi_logo.svg"
   inkscape:version="0.92.0 r15299">
  <defs
     id="defs5842" />
  <sodipodi:namedview
     id="base"
     pagecolor="#ffffff"
     bordercolor="#666666"
     borderopacity="1.0"
     inkscape:pageopacity="0.0"
     inkscape:pageshadow="2"
     inkscape:zoom="0.35"
     inkscape:cx="114.86389"
     inkscape:cy="254.74014"
     inkscape:document-units="mm"
     inkscape:current-layer="layer1"
     showgrid="false"
     fit-margin-top="0"
     fit-margin-left="0"
     fit-margin-right="0"
     fit-margin-bottom="0"
     inkscape:window-width="1366"
     inkscape:window-height="705"
     inkscape:window-x="-8"
     inkscape:window-y="-8"
     inkscape:window-maximized="1" />
  <metadata
     id="metadata5845">
    <rdf:RDF>
      <cc:Work
         rdf:about="">
        <dc:format>image/svg+xml</dc:format>
        <dc:type
           rdf:resource="http://purl.org/dc/dcmitype/StillImage" />
        <dc:title></dc:title>
      </cc:Work>
    </rdf:RDF>
  </metadata>
  <g
     inkscape:label="Layer 1"
     inkscape:groupmode="layer"
     id="layer1"
     transform="translate(47.4,-80.766664)">
    <g
       id="g7785"
       transform="matrix(1.7567637,0,0,1.7567637,319.26108,-277.4791)">
      <rect
         y="203.92371"
         x="-208.71394"
         height="77.111488"
         width="173.50085"
         id="rect7759"
         style="opacity:1;fill:none;fill-opacity:0.98958333;fill-rule:nonzero;stroke:none;stroke-width:0.24276042;stroke-opacity:1" />
      <g
         transform="matrix(0.71063037,0,0,-0.71552547,-2869.9909,-1514.7401)"
         id="g7730"
         inkscape:export-filename="C:\Users\user5\SAN\W\EOSNairobi\EOS Nairobi logos\logo_EOS Nairobi.png"
         inkscape:export-xdpi="999.62579"
         inkscape:export-ydpi="999.62579">
        <g
           style="fill:#ffffff"
           inkscape:export-ydpi="920"
           inkscape:export-xdpi="920"
           inkscape:export-filename="C:\Users\user5\SAN\W\EOSNairobi\eostickers\g4714.png"
           transform="matrix(0.76514852,0,0,-0.76514852,4399.5168,-2919.3574)"
           id="g7708">
          <g
             style="fill:#ffffff"
             id="g7690"
             transform="matrix(2.0368513,0,0,2.0368513,679.64342,-828.15275)">
            <path
               inkscape:connector-curvature="0"
               style="fill:#000000;stroke-width:0.26458335"
               d="m -620.12206,113.12418 c 1.90707,-0.93305 3.69235,-2.74 4.66559,-4.72224 0.6949,-1.41532 0.77778,-1.85196 0.77778,-4.09767 0,-2.20348 -0.0889,-2.69304 -0.72057,-3.96875 -0.39631,-0.800356 -1.45579,-2.348166 -2.35439,-3.439576 -2.71664,-3.29953 -3.16963,-5.0151 -1.99106,-7.54063 0.97974,-2.09944 2.72792,-3.41312 5.66133,-4.25419 0.38304,-0.10982 0.45264,-2.41967 0.0902,-2.99206 -0.3535,-0.55821 -2.63027,-0.24069 -4.36702,0.60902 -1.96166,0.95975 -3.64302,2.69386 -4.70656,4.85422 -0.7798,1.584 -0.8723,2.01096 -0.8723,4.02641 0,2.77588 0.64231,4.249 3.05958,7.01702 2.11615,2.423206 2.72977,3.621226 2.71528,5.301226 -0.0238,2.76331 -1.98792,5.37695 -4.76906,6.34625 -1.48417,0.51727 -1.53776,0.56897 -1.61952,1.56228 -0.0465,0.56501 -0.0105,1.32238 0.08,1.68305 0.15559,0.61992 0.23882,0.64695 1.52374,0.49477 0.74753,-0.0885 2.01969,-0.48415 2.82701,-0.87913 z"
               id="path7684" />
            <path
               inkscape:connector-curvature="0"
               id="path7686"
               style="fill:#000000;stroke-width:0.26458335"
               d="m -654.08542,109.10471 c -3.92179,-1.38419 -6.67536,-4.41806 -7.74818,-8.53691 -1.77402,-6.810903 2.86113,-13.746593 10.00467,-14.970223 2.28603,-0.39158 4.9366,0.0353 7.23017,1.16441 1.84962,0.91057 4.45137,3.41686 5.3227,5.12742 2.35132,4.61601 1.66989,10.132213 -1.71704,13.899303 -3.22363,3.58543 -8.5248,4.92811 -13.09232,3.316 z m 7.82531,3.92458 c 4.57621,-1.17753 8.56081,-4.40207 10.47726,-8.47875 2.12704,-4.52465 2.07405,-9.644363 -0.14539,-14.044083 -1.88465,-3.73607 -5.00022,-6.423041 -9.09137,-7.840711 -6.35161,-2.200949 -13.64316,0.0556 -17.65521,5.463751 -1.53808,2.07331 -2.32094,3.82313 -2.84453,6.35798 -0.51219,2.4797 -0.51639,4.01385 -0.0174,6.369253 1.24812,5.89155 5.93345,10.78239 11.65479,12.166 2.12786,0.51459 5.63578,0.51761 7.62185,0.007 z" />
            <path
               inkscape:connector-curvature="0"
               id="path7688"
               style="fill:#000000;stroke-width:0.26458335"
               d="m -675.83993,112.56515 c 0.23659,-0.15005 0.31982,-0.71059 0.26458,-1.78188 l -0.0806,-1.56296 -8.92969,-0.0697 -8.92969,-0.0697 v -2.90259 -2.90257 l 7.07761,-0.0705 7.0776,-0.0705 0.0782,-1.78594 0.0782,-1.785935 h -7.15585 -7.15584 v -2.64151 -2.64151 l 7.07761,-0.0705 7.0776,-0.0705 0.0782,-1.78594 0.0782,-1.78594 h -7.15585 -7.15584 v -2.51002 -2.51002 l 8.92969,-0.0697 8.92969,-0.0697 v -1.7198 -1.719791 l -10.78177,-0.0691 -10.78177,-0.0691 v 15.304711 c 0,8.417585 0.0794,15.384075 0.17639,15.481085 0.25739,0.25741 20.79482,0.20835 21.20316,-0.0506 z" />
          </g>
          <g
             style="fill:#ffffff"
             id="g7706"
             transform="translate(-1.2141664e-5,-716.67146)">
            <path
               style="fill:#000000;stroke-width:0.26458335"
               d="m -663.6204,160.61047 0.0714,-5.62983 3.61765,0.0736 3.61766,0.0736 3.33698,5.55625 3.33697,5.55625 2.16821,0.0768 c 1.27166,0.0451 2.16821,-0.0289 2.16821,-0.17881 0,-0.14062 -1.48462,-2.72932 -3.29915,-5.75267 l -3.29914,-5.49701 1.6455,-0.86731 c 6.69764,-3.53019 7.36694,-12.53011 1.24862,-16.7899 -2.29492,-1.59781 -3.72627,-1.83745 -10.47804,-1.75423 l -5.79383,0.0714 v 1.71979 1.71979 l 6.23942,0.13229 6.23944,0.13229 1.2942,0.80075 c 4.00185,2.47602 3.95358,7.97998 -0.092,10.49552 -0.94659,0.58858 -1.23638,0.61463 -8.25706,0.74228 l -7.27604,0.13229 -0.0703,7.48666 -0.0703,7.48666 1.79007,-0.0783 1.79008,-0.0783 z"
               id="path7692"
               inkscape:connector-curvature="0" />
            <path
               id="path7694"
               style="fill:#000000;stroke-width:0.26458335"
               d="m -627.63581,162.28106 c -3.92179,-1.38419 -6.67536,-4.41806 -7.74818,-8.53691 -1.77402,-6.8109 2.86113,-13.74659 10.00467,-14.97022 2.28603,-0.39158 4.9366,0.0353 7.23017,1.16441 1.84962,0.91057 4.45137,3.41686 5.3227,5.12742 2.35132,4.61601 1.66989,10.13221 -1.71704,13.8993 -3.22363,3.58543 -8.5248,4.92811 -13.09232,3.316 z m 7.82531,3.92458 c 4.57621,-1.17753 8.56081,-4.40207 10.47726,-8.47875 2.12704,-4.52465 2.07405,-9.64436 -0.14539,-14.04408 -1.88465,-3.73607 -5.00022,-6.42304 -9.09137,-7.84071 -6.35161,-2.20095 -13.64316,0.0556 -17.65521,5.46375 -1.53808,2.07331 -2.32094,3.82313 -2.84453,6.35798 -0.51219,2.4797 -0.51639,4.01385 -0.0174,6.36925 1.24812,5.89155 5.93345,10.78239 11.65479,12.166 2.12786,0.51459 5.63578,0.51761 7.62185,0.007 z"
               inkscape:connector-curvature="0" />
            <path
               style="fill:#000000;stroke-width:0.26458335"
               d="m -714.47265,150.88122 v -15.34583 l -1.65365,-0.0788 c -0.9095,-0.0433 -1.6804,-0.0433 -1.7131,0 -0.0327,0.0433 -0.122,5.52762 -0.19844,12.18732 l -0.13898,12.10854 -9.11014,-12.15424 -9.11013,-12.15425 -1.73778,-0.0966 c -0.95578,-0.0531 -1.88778,-0.0491 -2.07111,0.009 -0.26307,0.0832 -0.31883,2.7061 -0.26458,12.44539 l 0.0687,12.33997 5.52255,0.0716 c 3.94966,0.0512 5.62975,-0.0174 5.89892,-0.24075 0.26308,-0.21833 0.35287,-0.75758 0.29828,-1.7914 l -0.0781,-1.47905 -4.0349,-0.073 -4.03489,-0.073 v -7.85161 -7.85161 l 1.936,2.63298 c 1.0648,1.44814 4.36969,5.9072 7.34419,9.90902 2.9745,4.00182 6.35904,8.56074 7.52119,10.13093 l 2.11301,2.85489 1.72145,-0.0768 1.72145,-0.0768 z"
               id="path7696"
               inkscape:connector-curvature="0" />
            <path
               style="fill:#000000;stroke-width:0.26458335"
               d="m -672.62911,151.17276 c 0.0495,-10.89627 -0.0143,-15.15101 -0.23084,-15.41198 -0.16755,-0.20189 -0.79923,-0.36049 -1.43577,-0.36049 -2.16128,0 -1.97362,-1.48816 -1.97362,15.65081 v 15.32962 l 1.78594,-0.0782 1.78594,-0.0782 z"
               id="path7698"
               inkscape:connector-curvature="0" />
            <path
               id="path7700"
               style="fill:#000000;stroke-width:0.26458335"
               d="m -598.97931,157.69313 0.0718,-5.23915 h 5.95312 c 6.79518,0 7.39346,0.14816 8.83445,2.18777 1.63248,2.31065 0.94862,5.79648 -1.44863,7.38409 l -1.12778,0.74689 -6.17737,0.0798 -6.17736,0.0798 z m 14.35928,8.04098 c 2.04404,-0.95639 3.89195,-2.90499 4.64296,-4.89594 0.45721,-1.21207 0.54685,-1.91767 0.46051,-3.62497 -0.12941,-2.55886 -0.98343,-4.35884 -2.86483,-6.03812 l -1.21561,-1.08501 0.98571,-1.40715 c 2.45957,-3.51115 1.91219,-8.51774 -1.20734,-11.04288 -2.29879,-1.86079 -2.22676,-1.84645 -9.73109,-1.93722 l -6.81302,-0.0824 v 1.70775 c 0,1.31316 0.0967,1.74485 0.41852,1.86834 0.23018,0.0883 2.97336,0.1606 6.09596,0.1606 5.12542,0 5.77672,0.0506 6.69857,0.52094 2.52502,1.28817 3.10004,4.85367 1.15547,7.16466 -1.19039,1.4147 -1.29807,1.43338 -9.07685,1.57482 l -7.27604,0.13229 -0.0699,8.59681 c -0.0384,4.72824 -0.009,8.75446 0.0645,8.94716 0.10846,0.28263 1.68151,0.33418 8.13969,0.26673 l 8.00524,-0.0836 z"
               inkscape:connector-curvature="0" />
            <path
               id="path7702"
               style="fill:#000000;stroke-width:0.26458335"
               d="m -703.83973,162.50343 c 0,-0.26087 8.22691,-19.51091 8.42624,-19.71644 0.14348,-0.14796 8.19355,18.44285 8.46035,19.53832 0.0698,0.28642 -1.48072,0.35124 -8.40052,0.35124 -4.66733,0 -8.48607,-0.0779 -8.48607,-0.17312 z m 22.21791,3.28198 c -0.004,-0.32742 -2.90096,-7.26281 -6.4379,-15.41198 -5.99546,-13.81363 -6.47747,-14.82223 -7.12009,-14.89879 -0.4883,-0.0582 -0.80208,0.0961 -1.07615,0.52917 -0.62705,0.9908 -12.87543,29.16042 -12.87543,29.61175 0,0.22681 0.0794,0.49176 0.17639,0.58877 0.097,0.097 6.28826,0.17639 13.75833,0.17639 h 13.58194 l -0.007,-0.59531 z"
               inkscape:connector-curvature="0" />
            <path
               inkscape:connector-curvature="0"
               id="path7704"
               d="m -570.50156,151.17276 c 0.0495,-10.89627 -0.0143,-15.15101 -0.23084,-15.41198 -0.16755,-0.20189 -0.79923,-0.36049 -1.43577,-0.36049 -2.16128,0 -1.97362,-1.48816 -1.97362,15.65081 v 15.32962 l 1.78594,-0.0782 1.78594,-0.0782 z"
               style="fill:#000000;stroke-width:0.26458335" />
          </g>
        </g>
        <g
           transform="matrix(1.047328,0,0,1.047328,-178.2606,120.81098)"
           id="g7728">
          <path
             sodipodi:nodetypes="cccsc"
             inkscape:connector-curvature="0"
             id="path7710"
             d="m 3793.7133,-2490.2864 c -4.9111,14.6877 -10.1316,27.8706 -14.7412,44.2233 3.7872,5.8885 9.6067,15.0291 14.7412,20.1632 0.798,0.055 14.9413,-19.4244 14.9413,-20.5924 0,-2.1526 -14.4783,-44.5973 -14.9413,-43.7941 z"
             style="display:inline;opacity:1;fill:#bb0000;fill-opacity:1;stroke:none;stroke-width:3.87260056;stroke-linecap:round;stroke-linejoin:round;stroke-miterlimit:4;stroke-dasharray:none;stroke-opacity:1" />
          <path
             sodipodi:nodetypes="cccc"
             inkscape:connector-curvature="0"
             id="path7712"
             d="m 3770.8391,-2482.1534 c 1.6729,8.2682 3.3081,15.7867 6.0998,29.4823 0.4974,0.3074 13.8939,-39.7668 13.8939,-41.5124 -6.5092,3.7683 -13.9543,8.4295 -19.9937,12.0301 z"
             style="display:inline;opacity:1;fill:#000000;fill-opacity:1;stroke:none;stroke-width:3.87260056;stroke-linecap:round;stroke-linejoin:round;stroke-miterlimit:4;stroke-dasharray:none;stroke-opacity:1" />
          <path
             sodipodi:nodetypes="cccc"
             inkscape:connector-curvature="0"
             id="path7714"
             d="m 3810.4876,-2452.6711 c 1.033,-3.5102 6.3777,-29.0326 6.0998,-29.4823 -0.455,-0.7361 -19.2153,-12.0301 -19.9937,-12.0301 2.6301,7.6107 9.3566,29.4383 13.8939,41.5124 z"
             style="display:inline;opacity:1;fill:#000000;fill-opacity:1;stroke:none;stroke-width:3.87260056;stroke-linecap:round;stroke-linejoin:round;stroke-miterlimit:4;stroke-dasharray:none;stroke-opacity:1" />
          <g
             id="g7726"
             transform="matrix(6.4079269,0,0,-6.4079269,4650.9707,-947.18212)"
             style="fill:#ffffff">
            <g
               transform="translate(-166.24164,19.250441)"
               id="g7724"
               style="fill:#ffffff">
              <g
                 id="g7722"
                 transform="matrix(0.26458333,0,0,0.26458333,28.213456,210.51905)"
                 style="fill:#ffffff">
                <g
                   id="g7718"
                   class="st1"
                   style="fill:#ffffff;enable-background:new" />
                <g
                   id="g7720"
                   class="st1"
                   style="fill:#ffffff;enable-background:new" />
              </g>
            </g>
          </g>
        </g>
      </g>
    </g>
  </g>
</svg>
